<svg width="475" height="230" viewBox="0 0 475 230" fill="none" xmlns="http://www.w3.org/2000/svg">
<path d="M1.5 201V218C1.5 223.523 5.97715 228 11.5 228H26.5" stroke="#515151" stroke-width="3" stroke-linecap="round"/>
<path d="M473 201V218C473 223.523 468.523 228 463 228H448" stroke="#515151" stroke-width="3" stroke-linecap="round"/>
<path d="M1.5 29V12C1.5 6.47715 5.97715 2 11.5 2H26.5" stroke="#515151" stroke-width="3" stroke-linecap="round"/>
<path d="M473 29V12C473 6.47715 468.523 2 463 2H448" stroke="#515151" stroke-width="3" stroke-linecap="round"/>
<path d="M125.676 122H121.438V108.909H125.81C127.093 108.909 128.195 109.171 129.115 109.695C130.036 110.215 130.741 110.963 131.231 111.939C131.725 112.911 131.972 114.076 131.972 115.435C131.972 116.799 131.723 117.971 131.224 118.951C130.73 119.931 130.014 120.685 129.077 121.214C128.139 121.738 127.006 122 125.676 122ZM123.413 120.274H125.567C126.565 120.274 127.393 120.087 128.054 119.712C128.714 119.332 129.209 118.785 129.537 118.069C129.865 117.349 130.029 116.471 130.029 115.435C130.029 114.408 129.865 113.537 129.537 112.821C129.213 112.105 128.729 111.562 128.086 111.191C127.442 110.82 126.643 110.635 125.689 110.635H123.413V120.274ZM134.275 122V112.182H136.122V113.741H136.225C136.404 113.213 136.719 112.798 137.171 112.495C137.627 112.188 138.142 112.035 138.718 112.035C138.837 112.035 138.977 112.039 139.139 112.048C139.306 112.056 139.436 112.067 139.529 112.08V113.908C139.453 113.886 139.316 113.863 139.12 113.837C138.924 113.808 138.728 113.793 138.532 113.793C138.08 113.793 137.678 113.888 137.324 114.08C136.975 114.268 136.698 114.53 136.493 114.866C136.289 115.199 136.186 115.578 136.186 116.004V122H134.275ZM143.953 122.217C143.33 122.217 142.768 122.102 142.265 121.872C141.762 121.638 141.364 121.299 141.07 120.856C140.78 120.413 140.635 119.869 140.635 119.226C140.635 118.672 140.742 118.216 140.955 117.858C141.168 117.5 141.455 117.217 141.818 117.008C142.18 116.799 142.585 116.641 143.032 116.535C143.48 116.428 143.936 116.347 144.4 116.292C144.988 116.224 145.465 116.168 145.832 116.126C146.198 116.079 146.465 116.004 146.631 115.902C146.797 115.8 146.88 115.634 146.88 115.403V115.359C146.88 114.8 146.722 114.368 146.407 114.061C146.096 113.754 145.632 113.601 145.014 113.601C144.37 113.601 143.863 113.744 143.492 114.029C143.126 114.31 142.872 114.624 142.732 114.969L140.936 114.56C141.149 113.963 141.46 113.482 141.869 113.115C142.282 112.744 142.757 112.476 143.294 112.31C143.831 112.139 144.396 112.054 144.988 112.054C145.38 112.054 145.796 112.101 146.235 112.195C146.678 112.284 147.091 112.45 147.475 112.693C147.862 112.936 148.18 113.283 148.427 113.735C148.674 114.183 148.798 114.764 148.798 115.48V122H146.931V120.658H146.855C146.731 120.905 146.546 121.148 146.298 121.386C146.051 121.625 145.734 121.823 145.346 121.981C144.958 122.138 144.494 122.217 143.953 122.217ZM144.368 120.683C144.896 120.683 145.348 120.579 145.723 120.37C146.102 120.161 146.39 119.888 146.586 119.552C146.786 119.211 146.887 118.847 146.887 118.459V117.193C146.818 117.261 146.686 117.325 146.49 117.385C146.298 117.44 146.079 117.489 145.832 117.532C145.585 117.57 145.344 117.607 145.11 117.641C144.875 117.67 144.679 117.696 144.521 117.717C144.151 117.764 143.812 117.843 143.505 117.954C143.203 118.065 142.96 118.224 142.776 118.433C142.597 118.638 142.508 118.911 142.508 119.251C142.508 119.724 142.683 120.082 143.032 120.325C143.382 120.564 143.827 120.683 144.368 120.683ZM155.46 125.886C154.68 125.886 154.009 125.784 153.446 125.58C152.888 125.375 152.432 125.104 152.078 124.768C151.725 124.431 151.461 124.063 151.286 123.662L152.929 122.984C153.044 123.172 153.197 123.37 153.389 123.579C153.585 123.792 153.849 123.973 154.181 124.122C154.518 124.271 154.951 124.346 155.479 124.346C156.203 124.346 156.802 124.169 157.275 123.815C157.748 123.466 157.985 122.908 157.985 122.141V120.21H157.863C157.748 120.419 157.582 120.651 157.365 120.907C157.152 121.163 156.858 121.384 156.483 121.572C156.108 121.759 155.62 121.853 155.019 121.853C154.243 121.853 153.544 121.672 152.922 121.31C152.304 120.943 151.814 120.404 151.452 119.692C151.094 118.977 150.915 118.097 150.915 117.053C150.915 116.009 151.092 115.114 151.446 114.368C151.804 113.622 152.294 113.051 152.916 112.655C153.538 112.254 154.243 112.054 155.032 112.054C155.641 112.054 156.133 112.156 156.508 112.361C156.883 112.561 157.175 112.795 157.384 113.064C157.597 113.332 157.761 113.569 157.876 113.773H158.017V112.182H159.89V122.217C159.89 123.061 159.694 123.754 159.301 124.295C158.909 124.836 158.379 125.237 157.71 125.496C157.045 125.756 156.295 125.886 155.46 125.886ZM155.441 120.268C155.99 120.268 156.455 120.14 156.834 119.884C157.218 119.624 157.507 119.254 157.703 118.772C157.904 118.286 158.004 117.705 158.004 117.027C158.004 116.366 157.906 115.785 157.71 115.282C157.514 114.779 157.226 114.387 156.847 114.106C156.468 113.82 155.999 113.678 155.441 113.678C154.865 113.678 154.386 113.827 154.002 114.125C153.619 114.419 153.329 114.82 153.133 115.327C152.941 115.834 152.846 116.401 152.846 117.027C152.846 117.67 152.944 118.235 153.14 118.721C153.336 119.207 153.625 119.586 154.009 119.859C154.397 120.131 154.874 120.268 155.441 120.268ZM170.074 122.217C169.452 122.217 168.889 122.102 168.386 121.872C167.883 121.638 167.485 121.299 167.191 120.856C166.901 120.413 166.756 119.869 166.756 119.226C166.756 118.672 166.863 118.216 167.076 117.858C167.289 117.5 167.577 117.217 167.939 117.008C168.301 116.799 168.706 116.641 169.153 116.535C169.601 116.428 170.057 116.347 170.521 116.292C171.109 116.224 171.586 116.168 171.953 116.126C172.319 116.079 172.586 116.004 172.752 115.902C172.918 115.8 173.001 115.634 173.001 115.403V115.359C173.001 114.8 172.844 114.368 172.528 114.061C172.217 113.754 171.753 113.601 171.135 113.601C170.491 113.601 169.984 113.744 169.613 114.029C169.247 114.31 168.993 114.624 168.853 114.969L167.057 114.56C167.27 113.963 167.581 113.482 167.99 113.115C168.403 112.744 168.878 112.476 169.415 112.31C169.952 112.139 170.517 112.054 171.109 112.054C171.501 112.054 171.917 112.101 172.356 112.195C172.799 112.284 173.212 112.45 173.596 112.693C173.983 112.936 174.301 113.283 174.548 113.735C174.795 114.183 174.919 114.764 174.919 115.48V122H173.052V120.658H172.976C172.852 120.905 172.667 121.148 172.42 121.386C172.172 121.625 171.855 121.823 171.467 121.981C171.079 122.138 170.615 122.217 170.074 122.217ZM170.489 120.683C171.018 120.683 171.469 120.579 171.844 120.37C172.224 120.161 172.511 119.888 172.707 119.552C172.907 119.211 173.008 118.847 173.008 118.459V117.193C172.939 117.261 172.807 117.325 172.611 117.385C172.42 117.44 172.2 117.489 171.953 117.532C171.706 117.57 171.465 117.607 171.231 117.641C170.996 117.67 170.8 117.696 170.643 117.717C170.272 117.764 169.933 117.843 169.626 117.954C169.324 118.065 169.081 118.224 168.898 118.433C168.719 118.638 168.629 118.911 168.629 119.251C168.629 119.724 168.804 120.082 169.153 120.325C169.503 120.564 169.948 120.683 170.489 120.683ZM179.376 116.17V122H177.464V112.182H179.299V113.78H179.42C179.646 113.26 180 112.842 180.482 112.527C180.967 112.212 181.579 112.054 182.316 112.054C182.985 112.054 183.571 112.195 184.074 112.476C184.577 112.753 184.967 113.166 185.244 113.716C185.521 114.266 185.659 114.945 185.659 115.755V122H183.748V115.985C183.748 115.273 183.563 114.717 183.192 114.317C182.821 113.912 182.312 113.71 181.664 113.71C181.221 113.71 180.827 113.805 180.482 113.997C180.141 114.189 179.87 114.47 179.67 114.841C179.474 115.207 179.376 115.651 179.376 116.17ZM191.898 122.192C191.105 122.192 190.398 121.989 189.776 121.585C189.158 121.175 188.672 120.594 188.318 119.839C187.969 119.081 187.794 118.171 187.794 117.11C187.794 116.049 187.971 115.141 188.325 114.387C188.683 113.633 189.173 113.055 189.795 112.655C190.417 112.254 191.122 112.054 191.911 112.054C192.52 112.054 193.01 112.156 193.381 112.361C193.756 112.561 194.045 112.795 194.25 113.064C194.459 113.332 194.621 113.569 194.736 113.773H194.851V108.909H196.762V122H194.896V120.472H194.736C194.621 120.681 194.455 120.92 194.237 121.188C194.024 121.457 193.73 121.691 193.355 121.891C192.98 122.092 192.494 122.192 191.898 122.192ZM192.32 120.562C192.869 120.562 193.334 120.417 193.713 120.127C194.097 119.833 194.386 119.426 194.582 118.906C194.783 118.386 194.883 117.781 194.883 117.091C194.883 116.409 194.785 115.812 194.589 115.301C194.393 114.79 194.105 114.391 193.726 114.106C193.347 113.82 192.878 113.678 192.32 113.678C191.744 113.678 191.265 113.827 190.881 114.125C190.498 114.423 190.208 114.83 190.012 115.346C189.82 115.862 189.724 116.443 189.724 117.091C189.724 117.747 189.822 118.337 190.018 118.862C190.214 119.386 190.504 119.801 190.888 120.108C191.276 120.411 191.753 120.562 192.32 120.562ZM208.645 122H204.407V108.909H208.779C210.062 108.909 211.163 109.171 212.084 109.695C213.004 110.215 213.71 110.963 214.2 111.939C214.694 112.911 214.941 114.076 214.941 115.435C214.941 116.799 214.692 117.971 214.193 118.951C213.699 119.931 212.983 120.685 212.045 121.214C211.108 121.738 209.974 122 208.645 122ZM206.382 120.274H208.536C209.533 120.274 210.362 120.087 211.023 119.712C211.683 119.332 212.178 118.785 212.506 118.069C212.834 117.349 212.998 116.471 212.998 115.435C212.998 114.408 212.834 113.537 212.506 112.821C212.182 112.105 211.698 111.562 211.055 111.191C210.411 110.82 209.612 110.635 208.658 110.635H206.382V120.274ZM217.244 122V112.182H219.091V113.741H219.193C219.372 113.213 219.688 112.798 220.139 112.495C220.595 112.188 221.111 112.035 221.686 112.035C221.806 112.035 221.946 112.039 222.108 112.048C222.274 112.056 222.404 112.067 222.498 112.08V113.908C222.421 113.886 222.285 113.863 222.089 113.837C221.893 113.808 221.697 113.793 221.501 113.793C221.049 113.793 220.646 113.888 220.293 114.08C219.943 114.268 219.666 114.53 219.462 114.866C219.257 115.199 219.155 115.578 219.155 116.004V122H217.244ZM227.936 122.198C227.016 122.198 226.212 121.987 225.526 121.565C224.84 121.143 224.308 120.553 223.928 119.795C223.549 119.036 223.359 118.15 223.359 117.136C223.359 116.117 223.549 115.227 223.928 114.464C224.308 113.701 224.84 113.109 225.526 112.687C226.212 112.265 227.016 112.054 227.936 112.054C228.857 112.054 229.66 112.265 230.346 112.687C231.032 113.109 231.565 113.701 231.944 114.464C232.323 115.227 232.513 116.117 232.513 117.136C232.513 118.15 232.323 119.036 231.944 119.795C231.565 120.553 231.032 121.143 230.346 121.565C229.66 121.987 228.857 122.198 227.936 122.198ZM227.942 120.594C228.539 120.594 229.033 120.436 229.425 120.121C229.817 119.805 230.107 119.386 230.295 118.862C230.487 118.337 230.582 117.76 230.582 117.129C230.582 116.503 230.487 115.928 230.295 115.403C230.107 114.875 229.817 114.451 229.425 114.131C229.033 113.812 228.539 113.652 227.942 113.652C227.342 113.652 226.843 113.812 226.447 114.131C226.055 114.451 225.763 114.875 225.571 115.403C225.384 115.928 225.29 116.503 225.29 117.129C225.29 117.76 225.384 118.337 225.571 118.862C225.763 119.386 226.055 119.805 226.447 120.121C226.843 120.436 227.342 120.594 227.942 120.594ZM234.646 125.682V112.182H236.513V113.773H236.672C236.783 113.569 236.943 113.332 237.152 113.064C237.361 112.795 237.65 112.561 238.021 112.361C238.392 112.156 238.882 112.054 239.491 112.054C240.284 112.054 240.991 112.254 241.613 112.655C242.236 113.055 242.724 113.633 243.077 114.387C243.435 115.141 243.614 116.049 243.614 117.11C243.614 118.171 243.437 119.081 243.084 119.839C242.73 120.594 242.244 121.175 241.626 121.585C241.008 121.989 240.303 122.192 239.51 122.192C238.914 122.192 238.426 122.092 238.047 121.891C237.672 121.691 237.378 121.457 237.165 121.188C236.952 120.92 236.787 120.681 236.672 120.472H236.557V125.682H234.646ZM236.519 117.091C236.519 117.781 236.619 118.386 236.819 118.906C237.02 119.426 237.309 119.833 237.689 120.127C238.068 120.417 238.532 120.562 239.082 120.562C239.653 120.562 240.131 120.411 240.514 120.108C240.898 119.801 241.187 119.386 241.383 118.862C241.584 118.337 241.684 117.747 241.684 117.091C241.684 116.443 241.586 115.862 241.39 115.346C241.198 114.83 240.908 114.423 240.52 114.125C240.137 113.827 239.657 113.678 239.082 113.678C238.528 113.678 238.059 113.82 237.676 114.106C237.297 114.391 237.009 114.79 236.813 115.301C236.617 115.812 236.519 116.409 236.519 117.091ZM251.778 122H249.682L254.393 108.909H256.675L261.386 122H259.289L255.588 111.287H255.486L251.778 122ZM252.13 116.874H258.931V118.536H252.13V116.874ZM269.342 117.928V112.182H271.26V122H269.381V120.3H269.278C269.052 120.824 268.69 121.261 268.192 121.61C267.697 121.955 267.081 122.128 266.344 122.128C265.714 122.128 265.155 121.989 264.67 121.712C264.188 121.431 263.809 121.016 263.532 120.466C263.259 119.916 263.123 119.237 263.123 118.427V112.182H265.034V118.197C265.034 118.866 265.219 119.398 265.59 119.795C265.961 120.191 266.442 120.389 267.035 120.389C267.393 120.389 267.748 120.3 268.102 120.121C268.46 119.942 268.756 119.671 268.991 119.309C269.229 118.947 269.346 118.487 269.342 117.928ZM277.503 122.192C276.711 122.192 276.003 121.989 275.381 121.585C274.763 121.175 274.277 120.594 273.924 119.839C273.574 119.081 273.4 118.171 273.4 117.11C273.4 116.049 273.576 115.141 273.93 114.387C274.288 113.633 274.778 113.055 275.4 112.655C276.022 112.254 276.728 112.054 277.516 112.054C278.125 112.054 278.615 112.156 278.986 112.361C279.361 112.561 279.651 112.795 279.855 113.064C280.064 113.332 280.226 113.569 280.341 113.773H280.456V108.909H282.368V122H280.501V120.472H280.341C280.226 120.681 280.06 120.92 279.843 121.188C279.63 121.457 279.336 121.691 278.961 121.891C278.586 122.092 278.1 122.192 277.503 122.192ZM277.925 120.562C278.475 120.562 278.939 120.417 279.319 120.127C279.702 119.833 279.992 119.426 280.188 118.906C280.388 118.386 280.488 117.781 280.488 117.091C280.488 116.409 280.39 115.812 280.194 115.301C279.998 114.79 279.711 114.391 279.331 114.106C278.952 113.82 278.483 113.678 277.925 113.678C277.35 113.678 276.87 113.827 276.487 114.125C276.103 114.423 275.814 114.83 275.618 115.346C275.426 115.862 275.33 116.443 275.33 117.091C275.33 117.747 275.428 118.337 275.624 118.862C275.82 119.386 276.11 119.801 276.493 120.108C276.881 120.411 277.358 120.562 277.925 120.562ZM285.095 122V112.182H287.007V122H285.095ZM286.061 110.667C285.728 110.667 285.443 110.556 285.204 110.335C284.97 110.109 284.852 109.84 284.852 109.529C284.852 109.214 284.97 108.945 285.204 108.724C285.443 108.498 285.728 108.385 286.061 108.385C286.393 108.385 286.676 108.498 286.911 108.724C287.149 108.945 287.269 109.214 287.269 109.529C287.269 109.84 287.149 110.109 286.911 110.335C286.676 110.556 286.393 110.667 286.061 110.667ZM293.713 122.198C292.793 122.198 291.99 121.987 291.304 121.565C290.618 121.143 290.085 120.553 289.706 119.795C289.326 119.036 289.137 118.15 289.137 117.136C289.137 116.117 289.326 115.227 289.706 114.464C290.085 113.701 290.618 113.109 291.304 112.687C291.99 112.265 292.793 112.054 293.713 112.054C294.634 112.054 295.437 112.265 296.123 112.687C296.809 113.109 297.342 113.701 297.721 114.464C298.1 115.227 298.29 116.117 298.29 117.136C298.29 118.15 298.1 119.036 297.721 119.795C297.342 120.553 296.809 121.143 296.123 121.565C295.437 121.987 294.634 122.198 293.713 122.198ZM293.72 120.594C294.316 120.594 294.811 120.436 295.203 120.121C295.595 119.805 295.885 119.386 296.072 118.862C296.264 118.337 296.36 117.76 296.36 117.129C296.36 116.503 296.264 115.928 296.072 115.403C295.885 114.875 295.595 114.451 295.203 114.131C294.811 113.812 294.316 113.652 293.72 113.652C293.119 113.652 292.62 113.812 292.224 114.131C291.832 114.451 291.54 114.875 291.348 115.403C291.161 115.928 291.067 116.503 291.067 117.129C291.067 117.76 291.161 118.337 291.348 118.862C291.54 119.386 291.832 119.805 292.224 120.121C292.62 120.436 293.119 120.594 293.72 120.594ZM305.409 108.295L301.191 123.969H299.484L303.703 108.295H305.409ZM308.383 108.909L312.027 119.571H312.174L315.817 108.909H317.952L313.241 122H310.959L306.248 108.909H308.383ZM319.689 122V112.182H321.6V122H319.689ZM320.654 110.667C320.322 110.667 320.036 110.556 319.798 110.335C319.563 110.109 319.446 109.84 319.446 109.529C319.446 109.214 319.563 108.945 319.798 108.724C320.036 108.498 320.322 108.385 320.654 108.385C320.987 108.385 321.27 108.498 321.504 108.724C321.743 108.945 321.862 109.214 321.862 109.529C321.862 109.84 321.743 110.109 321.504 110.335C321.27 110.556 320.987 110.667 320.654 110.667ZM327.847 122.192C327.054 122.192 326.347 121.989 325.725 121.585C325.107 121.175 324.621 120.594 324.267 119.839C323.918 119.081 323.743 118.171 323.743 117.11C323.743 116.049 323.92 115.141 324.274 114.387C324.632 113.633 325.122 113.055 325.744 112.655C326.366 112.254 327.071 112.054 327.86 112.054C328.469 112.054 328.959 112.156 329.33 112.361C329.705 112.561 329.995 112.795 330.199 113.064C330.408 113.332 330.57 113.569 330.685 113.773H330.8V108.909H332.711V122H330.845V120.472H330.685C330.57 120.681 330.404 120.92 330.186 121.188C329.973 121.457 329.679 121.691 329.304 121.891C328.929 122.092 328.444 122.192 327.847 122.192ZM328.269 120.562C328.819 120.562 329.283 120.417 329.662 120.127C330.046 119.833 330.336 119.426 330.532 118.906C330.732 118.386 330.832 117.781 330.832 117.091C330.832 116.409 330.734 115.812 330.538 115.301C330.342 114.79 330.054 114.391 329.675 114.106C329.296 113.82 328.827 113.678 328.269 113.678C327.694 113.678 327.214 113.827 326.831 114.125C326.447 114.423 326.157 114.83 325.961 115.346C325.77 115.862 325.674 116.443 325.674 117.091C325.674 117.747 325.772 118.337 325.968 118.862C326.164 119.386 326.453 119.801 326.837 120.108C327.225 120.411 327.702 120.562 328.269 120.562ZM339.671 122.198C338.703 122.198 337.87 121.991 337.171 121.578C336.477 121.161 335.94 120.575 335.561 119.82C335.186 119.062 334.998 118.173 334.998 117.155C334.998 116.149 335.186 115.263 335.561 114.496C335.94 113.729 336.468 113.13 337.146 112.7C337.828 112.269 338.624 112.054 339.536 112.054C340.09 112.054 340.627 112.146 341.147 112.329C341.667 112.512 342.134 112.8 342.547 113.192C342.96 113.584 343.286 114.093 343.525 114.719C343.764 115.342 343.883 116.098 343.883 116.989V117.666H336.078V116.234H342.01C342.01 115.732 341.908 115.286 341.703 114.898C341.499 114.506 341.211 114.197 340.84 113.972C340.474 113.746 340.044 113.633 339.549 113.633C339.012 113.633 338.544 113.765 338.143 114.029C337.747 114.289 337.44 114.63 337.222 115.052C337.009 115.469 336.903 115.923 336.903 116.413V117.532C336.903 118.188 337.018 118.746 337.248 119.207C337.482 119.667 337.808 120.018 338.226 120.261C338.644 120.5 339.132 120.619 339.69 120.619C340.052 120.619 340.382 120.568 340.681 120.466C340.979 120.359 341.237 120.202 341.454 119.993C341.671 119.784 341.838 119.526 341.953 119.219L343.762 119.545C343.617 120.078 343.357 120.545 342.982 120.945C342.611 121.342 342.144 121.651 341.582 121.872C341.024 122.089 340.387 122.198 339.671 122.198ZM350.139 122.198C349.219 122.198 348.415 121.987 347.729 121.565C347.043 121.143 346.511 120.553 346.131 119.795C345.752 119.036 345.562 118.15 345.562 117.136C345.562 116.117 345.752 115.227 346.131 114.464C346.511 113.701 347.043 113.109 347.729 112.687C348.415 112.265 349.219 112.054 350.139 112.054C351.06 112.054 351.863 112.265 352.549 112.687C353.235 113.109 353.768 113.701 354.147 114.464C354.526 115.227 354.716 116.117 354.716 117.136C354.716 118.15 354.526 119.036 354.147 119.795C353.768 120.553 353.235 121.143 352.549 121.565C351.863 121.987 351.06 122.198 350.139 122.198ZM350.146 120.594C350.742 120.594 351.237 120.436 351.629 120.121C352.021 119.805 352.31 119.386 352.498 118.862C352.69 118.337 352.786 117.76 352.786 117.129C352.786 116.503 352.69 115.928 352.498 115.403C352.31 114.875 352.021 114.451 351.629 114.131C351.237 113.812 350.742 113.652 350.146 113.652C349.545 113.652 349.046 113.812 348.65 114.131C348.258 114.451 347.966 114.875 347.774 115.403C347.587 115.928 347.493 116.503 347.493 117.129C347.493 117.76 347.587 118.337 347.774 118.862C347.966 119.386 348.258 119.805 348.65 120.121C349.046 120.436 349.545 120.594 350.146 120.594Z" fill="#A8A8A8"/>
</svg>
