<svg width="25" height="20" viewBox="0 0 25 20" fill="none" xmlns="http://www.w3.org/2000/svg">
<path d="M13.3938 19.5237V14.0815H16.9655L12.5009 8.63934L8.03629 14.0815H11.608V19.5237H7.14337V19.4783C6.99336 19.4874 6.85049 19.5237 6.69691 19.5237C4.92078 19.5237 3.21739 18.807 1.96148 17.5312C0.705565 16.2555 0 14.5252 0 12.721C0 9.23072 2.5984 6.38628 5.93257 5.99626C6.2249 4.44396 7.0406 3.04365 8.23936 2.03618C9.43813 1.0287 10.945 0.477043 12.5009 0.476074C14.057 0.476948 15.5641 1.02854 16.7632 2.03599C17.9623 3.04344 18.7783 4.4438 19.071 5.99626C22.4052 6.38628 25 9.23072 25 12.721C25 14.5252 24.2944 16.2555 23.0385 17.5312C21.7826 18.807 20.0792 19.5237 18.3031 19.5237C18.1531 19.5237 18.0084 19.4874 17.8566 19.4783V19.5237H13.3938Z" fill="black"/>
</svg>
